<svg class="main-svg" xmlns="http://www.w3.org/2000/svg" xmlns:xlink="http://www.w3.org/1999/xlink" width="864" height="560" style="" viewBox="0 0 864 560"><rect x="0" y="0" width="864" height="560" style="fill: rgb(255, 255, 255); fill-opacity: 1;"/><defs id="defs-8cbaf1"><g class="clips"><clipPath id="clip8cbaf1xyplot" class="plotclip"><rect width="354.38" height="420"/></clipPath><clipPath id="clip8cbaf1x2y2plot" class="plotclip"><rect width="354.38" height="420"/></clipPath><clipPath class="axesclip" id="clip8cbaf1x"><rect x="75" y="0" width="354.38" height="560"/></clipPath><clipPath class="axesclip" id="clip8cbaf1y"><rect x="0" y="75" width="864" height="420"/></clipPath><clipPath class="axesclip" id="clip8cbaf1xy"><rect x="75" y="75" width="354.38" height="420"/></clipPath><clipPath class="axesclip" id="clip8cbaf1y2"><rect x="0" y="75" width="864" height="420"/></clipPath><clipPath class="axesclip" id="clip8cbaf1xy2"><rect x="75" y="75" width="354.38" height="420"/></clipPath><clipPath class="axesclip" id="clip8cbaf1x2"><rect x="474.62" y="0" width="354.38" height="560"/></clipPath><clipPath class="axesclip" id="clip8cbaf1x2y"><rect x="474.62" y="75" width="354.38" height="420"/></clipPath><clipPath class="axesclip" id="clip8cbaf1x2y2"><rect x="474.62" y="75" width="354.38" height="420"/></clipPath></g><g class="gradients"/><g class="patterns"/></defs><g class="bglayer"/><g class="layer-below"><g class="imagelayer"/><g class="shapelayer"/></g><g class="cartesianlayer"><g class="subplot xy"><g class="layer-subplot"><g class="shapelayer"/><g class="imagelayer"/></g><g class="minor-gridlayer"><g class="x"/><g class="y"/></g><g class="gridlayer"><g class="x"><path class="xgrid crisp" transform="translate(97.72,0)" d="M0,75v420" style="stroke: rgb(0, 0, 0); stroke-opacity: 0.1; stroke-width: 1px;"/><path class="xgrid crisp" transform="translate(204,0)" d="M0,75v420" style="stroke: rgb(0, 0, 0); stroke-opacity: 0.1; stroke-width: 1px;"/><path class="xgrid crisp" transform="translate(300.38,0)" d="M0,75v420" style="stroke: rgb(0, 0, 0); stroke-opacity: 0.1; stroke-width: 1px;"/><path class="xgrid crisp" transform="translate(406.66,0)" d="M0,75v420" style="stroke: rgb(0, 0, 0); stroke-opacity: 0.1; stroke-width: 1px;"/></g><g class="y"><path class="ygrid crisp" transform="translate(0,465.1)" d="M75,0h354.38" style="stroke: rgb(0, 0, 0); stroke-opacity: 0.1; stroke-width: 1px;"/><path class="ygrid crisp" transform="translate(0,417.91)" d="M75,0h354.38" style="stroke: rgb(0, 0, 0); stroke-opacity: 0.1; stroke-width: 1px;"/><path class="ygrid crisp" transform="translate(0,370.73)" d="M75,0h354.38" style="stroke: rgb(0, 0, 0); stroke-opacity: 0.1; stroke-width: 1px;"/><path class="ygrid crisp" transform="translate(0,323.55)" d="M75,0h354.38" style="stroke: rgb(0, 0, 0); stroke-opacity: 0.1; stroke-width: 1px;"/><path class="ygrid crisp" transform="translate(0,276.36)" d="M75,0h354.38" style="stroke: rgb(0, 0, 0); stroke-opacity: 0.1; stroke-width: 1px;"/><path class="ygrid crisp" transform="translate(0,229.18)" d="M75,0h354.38" style="stroke: rgb(0, 0, 0); stroke-opacity: 0.1; stroke-width: 1px;"/><path class="ygrid crisp" transform="translate(0,182)" d="M75,0h354.38" style="stroke: rgb(0, 0, 0); stroke-opacity: 0.1; stroke-width: 1px;"/><path class="ygrid crisp" transform="translate(0,134.82)" d="M75,0h354.38" style="stroke: rgb(0, 0, 0); stroke-opacity: 0.1; stroke-width: 1px;"/><path class="ygrid crisp" transform="translate(0,87.63)" d="M75,0h354.38" style="stroke: rgb(0, 0, 0); stroke-opacity: 0.1; stroke-width: 1px;"/></g></g><g class="zerolinelayer"/><g class="layer-between"><g class="shapelayer"/><g class="imagelayer"/></g><path class="xlines-below"/><path class="ylines-below"/><g class="overlines-below"/><g class="xaxislayer-below"/><g class="yaxislayer-below"/><g class="overaxes-below"/><g class="overplot"><g class="xy" transform="translate(75,75)" clip-path="url(#clip8cbaf1xyplot)"><g class="scatterlayer mlayer"><g class="trace scatter tracefc14c7" style="stroke-miterlimit: 2; opacity: 1;"><g class="fills"/><g class="errorbars"><g class="errorbar"><path class="yerror" d="M19.72,369.2h6m-3,0V370.94m-3,0h6" style="vector-effect: none; stroke-width: 1.2px; stroke: rgb(119, 119, 119); stroke-opacity: 1;"/></g><g class="errorbar"><path class="yerror" d="M126,381.58h6m-3,0V384.09m-3,0h6" style="vector-effect: none; stroke-width: 1.2px; stroke: rgb(119, 119, 119); stroke-opacity: 1;"/></g><g class="errorbar"><path class="yerror" d="M222.38,384.59h6m-3,0V387.2m-3,0h6" style="vector-effect: none; stroke-width: 1.2px; stroke: rgb(119, 119, 119); stroke-opacity: 1;"/></g><g class="errorbar"><path class="yerror" d="M328.66,388.1h6m-3,0V392.09m-3,0h6" style="vector-effect: none; stroke-width: 1.2px; stroke: rgb(119, 119, 119); stroke-opacity: 1;"/></g></g><g class="lines"><path class="js-line" d="M22.72,369.2L129,381.58L225.38,384.59L331.66,388.1" style="vector-effect: none; fill: none; stroke: rgb(119, 119, 119); stroke-opacity: 1; stroke-width: 2.5px; opacity: 1;"/></g><g class="points"><path class="point" transform="translate(22.72,369.2)" d="M4,0A4,4 0 1,1 0,-4A4,4 0 0,1 4,0Z" style="opacity: 1; stroke-width: 0px; fill: rgb(119, 119, 119); fill-opacity: 1;"/><path class="point" transform="translate(129,381.58)" d="M4,0A4,4 0 1,1 0,-4A4,4 0 0,1 4,0Z" style="opacity: 1; stroke-width: 0px; fill: rgb(119, 119, 119); fill-opacity: 1;"/><path class="point" transform="translate(225.38,384.59)" d="M4,0A4,4 0 1,1 0,-4A4,4 0 0,1 4,0Z" style="opacity: 1; stroke-width: 0px; fill: rgb(119, 119, 119); fill-opacity: 1;"/><path class="point" transform="translate(331.66,388.1)" d="M4,0A4,4 0 1,1 0,-4A4,4 0 0,1 4,0Z" style="opacity: 1; stroke-width: 0px; fill: rgb(119, 119, 119); fill-opacity: 1;"/></g><g class="text"/></g><g class="trace scatter trace00451d" style="stroke-miterlimit: 2; opacity: 1;"><g class="fills"/><g class="errorbars"><g class="errorbar"><path class="yerror" d="M19.72,383.13h6m-3,0V384.87m-3,0h6" style="vector-effect: none; stroke-width: 1.2px; stroke: rgb(106, 142, 58); stroke-opacity: 1;"/></g><g class="errorbar"><path class="yerror" d="M126,389.6h6m-3,0V393.1m-3,0h6" style="vector-effect: none; stroke-width: 1.2px; stroke: rgb(106, 142, 58); stroke-opacity: 1;"/></g><g class="errorbar"><path class="yerror" d="M222.38,386.33h6m-3,0V389.52m-3,0h6" style="vector-effect: none; stroke-width: 1.2px; stroke: rgb(106, 142, 58); stroke-opacity: 1;"/></g><g class="errorbar"><path class="yerror" d="M328.66,386.26h6m-3,0V394.85m-3,0h6" style="vector-effect: none; stroke-width: 1.2px; stroke: rgb(106, 142, 58); stroke-opacity: 1;"/></g></g><g class="lines"><path class="js-line" d="M22.72,383.13L129,389.6L225.38,386.33L331.66,386.26" style="vector-effect: none; fill: none; stroke: rgb(106, 142, 58); stroke-opacity: 1; stroke-width: 2.5px; opacity: 1;"/></g><g class="points"><path class="point" transform="translate(22.72,383.13)" d="M4,0A4,4 0 1,1 0,-4A4,4 0 0,1 4,0Z" style="opacity: 1; stroke-width: 0px; fill: rgb(106, 142, 58); fill-opacity: 1;"/><path class="point" transform="translate(129,389.6)" d="M4,0A4,4 0 1,1 0,-4A4,4 0 0,1 4,0Z" style="opacity: 1; stroke-width: 0px; fill: rgb(106, 142, 58); fill-opacity: 1;"/><path class="point" transform="translate(225.38,386.33)" d="M4,0A4,4 0 1,1 0,-4A4,4 0 0,1 4,0Z" style="opacity: 1; stroke-width: 0px; fill: rgb(106, 142, 58); fill-opacity: 1;"/><path class="point" transform="translate(331.66,386.26)" d="M4,0A4,4 0 1,1 0,-4A4,4 0 0,1 4,0Z" style="opacity: 1; stroke-width: 0px; fill: rgb(106, 142, 58); fill-opacity: 1;"/></g><g class="text"/></g><g class="trace scatter trace11bd3f" style="stroke-miterlimit: 2; opacity: 1;"><g class="fills"/><g class="errorbars"><g class="errorbar"><path class="yerror" d="M19.72,389.23h6m-3,0V390.1m-3,0h6" style="vector-effect: none; stroke-width: 1.2px; stroke: rgb(20, 107, 140); stroke-opacity: 1;"/></g><g class="errorbar"><path class="yerror" d="M126,390.1h6m-3,0V395.11m-3,0h6" style="vector-effect: none; stroke-width: 1.2px; stroke: rgb(20, 107, 140); stroke-opacity: 1;"/></g><g class="errorbar"><path class="yerror" d="M222.38,390.1h6m-3,0V393.57m-3,0h6" style="vector-effect: none; stroke-width: 1.2px; stroke: rgb(20, 107, 140); stroke-opacity: 1;"/></g><g class="errorbar"><path class="yerror" d="M328.66,390.1h6m-3,0V392.4m-3,0h6" style="vector-effect: none; stroke-width: 1.2px; stroke: rgb(20, 107, 140); stroke-opacity: 1;"/></g></g><g class="lines"><path class="js-line" d="M22.72,389.23L129,390.1L225.38,390.1L331.66,390.1" style="vector-effect: none; fill: none; stroke: rgb(20, 107, 140); stroke-opacity: 1; stroke-width: 2.5px; opacity: 1;"/></g><g class="points"><path class="point" transform="translate(22.72,389.23)" d="M4,0A4,4 0 1,1 0,-4A4,4 0 0,1 4,0Z" style="opacity: 1; stroke-width: 0px; fill: rgb(20, 107, 140); fill-opacity: 1;"/><path class="point" transform="translate(129,390.1)" d="M4,0A4,4 0 1,1 0,-4A4,4 0 0,1 4,0Z" style="opacity: 1; stroke-width: 0px; fill: rgb(20, 107, 140); fill-opacity: 1;"/><path class="point" transform="translate(225.38,390.1)" d="M4,0A4,4 0 1,1 0,-4A4,4 0 0,1 4,0Z" style="opacity: 1; stroke-width: 0px; fill: rgb(20, 107, 140); fill-opacity: 1;"/><path class="point" transform="translate(331.66,390.1)" d="M4,0A4,4 0 1,1 0,-4A4,4 0 0,1 4,0Z" style="opacity: 1; stroke-width: 0px; fill: rgb(20, 107, 140); fill-opacity: 1;"/></g><g class="text"/></g><g class="trace scatter traceec55a2" style="stroke-miterlimit: 2; opacity: 1;"><g class="fills"/><g class="errorbars"><g class="errorbar"><path class="yerror" d="M19.72,390.1h6m-3,0V393.58m-3,0h6" style="vector-effect: none; stroke-width: 1.2px; stroke: rgb(166, 58, 58); stroke-opacity: 1;"/></g><g class="errorbar"><path class="yerror" d="M126,385.09h6m-3,0V392.1m-3,0h6" style="vector-effect: none; stroke-width: 1.2px; stroke: rgb(166, 58, 58); stroke-opacity: 1;"/></g><g class="errorbar"><path class="yerror" d="M222.38,384.01h6m-3,0V388.36m-3,0h6" style="vector-effect: none; stroke-width: 1.2px; stroke: rgb(166, 58, 58); stroke-opacity: 1;"/></g><g class="errorbar"><path class="yerror" d="M328.66,374h6m-3,0V379.21m-3,0h6" style="vector-effect: none; stroke-width: 1.2px; stroke: rgb(166, 58, 58); stroke-opacity: 1;"/></g></g><g class="lines"><path class="js-line" d="M22.72,390.1L129,385.09L225.38,384.01L331.66,374" style="vector-effect: none; fill: none; stroke: rgb(166, 58, 58); stroke-opacity: 1; stroke-width: 2.5px; opacity: 1;"/></g><g class="points"><path class="point" transform="translate(22.72,390.1)" d="M4,0A4,4 0 1,1 0,-4A4,4 0 0,1 4,0Z" style="opacity: 1; stroke-width: 0px; fill: rgb(166, 58, 58); fill-opacity: 1;"/><path class="point" transform="translate(129,385.09)" d="M4,0A4,4 0 1,1 0,-4A4,4 0 0,1 4,0Z" style="opacity: 1; stroke-width: 0px; fill: rgb(166, 58, 58); fill-opacity: 1;"/><path class="point" transform="translate(225.38,384.01)" d="M4,0A4,4 0 1,1 0,-4A4,4 0 0,1 4,0Z" style="opacity: 1; stroke-width: 0px; fill: rgb(166, 58, 58); fill-opacity: 1;"/><path class="point" transform="translate(331.66,374)" d="M4,0A4,4 0 1,1 0,-4A4,4 0 0,1 4,0Z" style="opacity: 1; stroke-width: 0px; fill: rgb(166, 58, 58); fill-opacity: 1;"/></g><g class="text"/></g></g></g></g><g class="zerolinelayer-above"/><path class="xlines-above crisp" d="M0,0" style="fill: none;"/><path class="ylines-above crisp" d="M0,0" style="fill: none;"/><g class="overlines-above"/><g class="xaxislayer-above"><g class="xtick"><text text-anchor="middle" x="0" y="509" transform="translate(97.72,0)" style="font-family: Arial, sans-serif; font-size: 13px; fill: rgb(34, 34, 34); fill-opacity: 1; white-space: pre;">8</text></g><g class="xtick"><text text-anchor="middle" x="0" y="509" style="font-family: Arial, sans-serif; font-size: 13px; fill: rgb(34, 34, 34); fill-opacity: 1; white-space: pre;" transform="translate(204,0)">16</text></g><g class="xtick"><text text-anchor="middle" x="0" y="509" style="font-family: Arial, sans-serif; font-size: 13px; fill: rgb(34, 34, 34); fill-opacity: 1; white-space: pre;" transform="translate(300.38,0)">30</text></g><g class="xtick"><text text-anchor="middle" x="0" y="509" style="font-family: Arial, sans-serif; font-size: 13px; fill: rgb(34, 34, 34); fill-opacity: 1; white-space: pre;" transform="translate(406.66,0)">60</text></g></g><g class="yaxislayer-above"><g class="ytick"><text text-anchor="end" x="74" y="4.55" transform="translate(0,465.1)" style="font-family: Arial, sans-serif; font-size: 13px; fill: rgb(34, 34, 34); fill-opacity: 1; white-space: pre;">0</text></g><g class="ytick"><text text-anchor="end" x="74" y="4.55" style="font-family: Arial, sans-serif; font-size: 13px; fill: rgb(34, 34, 34); fill-opacity: 1; white-space: pre;" transform="translate(0,417.91)">5</text></g><g class="ytick"><text text-anchor="end" x="74" y="4.55" style="font-family: Arial, sans-serif; font-size: 13px; fill: rgb(34, 34, 34); fill-opacity: 1; white-space: pre;" transform="translate(0,370.73)">10</text></g><g class="ytick"><text text-anchor="end" x="74" y="4.55" style="font-family: Arial, sans-serif; font-size: 13px; fill: rgb(34, 34, 34); fill-opacity: 1; white-space: pre;" transform="translate(0,323.55)">15</text></g><g class="ytick"><text text-anchor="end" x="74" y="4.55" style="font-family: Arial, sans-serif; font-size: 13px; fill: rgb(34, 34, 34); fill-opacity: 1; white-space: pre;" transform="translate(0,276.36)">20</text></g><g class="ytick"><text text-anchor="end" x="74" y="4.55" style="font-family: Arial, sans-serif; font-size: 13px; fill: rgb(34, 34, 34); fill-opacity: 1; white-space: pre;" transform="translate(0,229.18)">25</text></g><g class="ytick"><text text-anchor="end" x="74" y="4.55" style="font-family: Arial, sans-serif; font-size: 13px; fill: rgb(34, 34, 34); fill-opacity: 1; white-space: pre;" transform="translate(0,182)">30</text></g><g class="ytick"><text text-anchor="end" x="74" y="4.55" style="font-family: Arial, sans-serif; font-size: 13px; fill: rgb(34, 34, 34); fill-opacity: 1; white-space: pre;" transform="translate(0,134.82)">35</text></g><g class="ytick"><text text-anchor="end" x="74" y="4.55" style="font-family: Arial, sans-serif; font-size: 13px; fill: rgb(34, 34, 34); fill-opacity: 1; white-space: pre;" transform="translate(0,87.63)">40</text></g></g><g class="overaxes-above"/></g><g class="subplot x2y2"><g class="layer-subplot"><g class="shapelayer"/><g class="imagelayer"/></g><g class="minor-gridlayer"><g class="x2"/><g class="y2"/></g><g class="gridlayer"><g class="x2"><path class="x2grid crisp" transform="translate(497.34000000000003,0)" d="M0,75v420" style="stroke: rgb(0, 0, 0); stroke-opacity: 0.1; stroke-width: 1px;"/><path class="x2grid crisp" transform="translate(603.62,0)" d="M0,75v420" style="stroke: rgb(0, 0, 0); stroke-opacity: 0.1; stroke-width: 1px;"/><path class="x2grid crisp" transform="translate(700,0)" d="M0,75v420" style="stroke: rgb(0, 0, 0); stroke-opacity: 0.1; stroke-width: 1px;"/><path class="x2grid crisp" transform="translate(806.28,0)" d="M0,75v420" style="stroke: rgb(0, 0, 0); stroke-opacity: 0.1; stroke-width: 1px;"/></g><g class="y2"><path class="y2grid crisp" transform="translate(0,465.1)" d="M474.62,0h354.38" style="stroke: rgb(0, 0, 0); stroke-opacity: 0.1; stroke-width: 1px;"/><path class="y2grid crisp" transform="translate(0,417.91)" d="M474.62,0h354.38" style="stroke: rgb(0, 0, 0); stroke-opacity: 0.1; stroke-width: 1px;"/><path class="y2grid crisp" transform="translate(0,370.73)" d="M474.62,0h354.38" style="stroke: rgb(0, 0, 0); stroke-opacity: 0.1; stroke-width: 1px;"/><path class="y2grid crisp" transform="translate(0,323.55)" d="M474.62,0h354.38" style="stroke: rgb(0, 0, 0); stroke-opacity: 0.1; stroke-width: 1px;"/><path class="y2grid crisp" transform="translate(0,276.36)" d="M474.62,0h354.38" style="stroke: rgb(0, 0, 0); stroke-opacity: 0.1; stroke-width: 1px;"/><path class="y2grid crisp" transform="translate(0,229.18)" d="M474.62,0h354.38" style="stroke: rgb(0, 0, 0); stroke-opacity: 0.1; stroke-width: 1px;"/><path class="y2grid crisp" transform="translate(0,182)" d="M474.62,0h354.38" style="stroke: rgb(0, 0, 0); stroke-opacity: 0.1; stroke-width: 1px;"/><path class="y2grid crisp" transform="translate(0,134.82)" d="M474.62,0h354.38" style="stroke: rgb(0, 0, 0); stroke-opacity: 0.1; stroke-width: 1px;"/><path class="y2grid crisp" transform="translate(0,87.63)" d="M474.62,0h354.38" style="stroke: rgb(0, 0, 0); stroke-opacity: 0.1; stroke-width: 1px;"/></g></g><g class="zerolinelayer"/><g class="layer-between"><g class="shapelayer"/><g class="imagelayer"/></g><path class="xlines-below"/><path class="ylines-below"/><g class="overlines-below"/><g class="xaxislayer-below"/><g class="yaxislayer-below"/><g class="overaxes-below"/><g class="overplot"><g class="x2y2" transform="translate(474.62,75)" clip-path="url(#clip8cbaf1x2y2plot)"><g class="scatterlayer mlayer"><g class="trace scatter trace2e19c7" style="stroke-miterlimit: 2; opacity: 1;"><g class="fills"/><g class="errorbars"><g class="errorbar"><path class="yerror" d="M19.72,254.21h6m-3,0V266.59m-3,0h6" style="vector-effect: none; stroke-width: 1.2px; stroke: rgb(119, 119, 119); stroke-opacity: 1;"/></g><g class="errorbar"><path class="yerror" d="M126,103.4h6m-3,0V112.85m-3,0h6" style="vector-effect: none; stroke-width: 1.2px; stroke: rgb(119, 119, 119); stroke-opacity: 1;"/></g><g class="errorbar"><path class="yerror" d="M222.38,62.45h6m-3,0V112.42m-3,0h6" style="vector-effect: none; stroke-width: 1.2px; stroke: rgb(119, 119, 119); stroke-opacity: 1;"/></g><g class="errorbar"><path class="yerror" d="M328.66,26h6m-3,0V59.05m-3,0h6" style="vector-effect: none; stroke-width: 1.2px; stroke: rgb(119, 119, 119); stroke-opacity: 1;"/></g></g><g class="lines"><path class="js-line" d="M22.72,254.21L129,103.4L225.38,62.45L331.66,26" style="vector-effect: none; fill: none; stroke: rgb(119, 119, 119); stroke-opacity: 1; stroke-width: 2.5px; opacity: 1;"/></g><g class="points"><path class="point" transform="translate(22.72,254.21)" d="M4,0A4,4 0 1,1 0,-4A4,4 0 0,1 4,0Z" style="opacity: 1; stroke-width: 0px; fill: rgb(119, 119, 119); fill-opacity: 1;"/><path class="point" transform="translate(129,103.4)" d="M4,0A4,4 0 1,1 0,-4A4,4 0 0,1 4,0Z" style="opacity: 1; stroke-width: 0px; fill: rgb(119, 119, 119); fill-opacity: 1;"/><path class="point" transform="translate(225.38,62.45)" d="M4,0A4,4 0 1,1 0,-4A4,4 0 0,1 4,0Z" style="opacity: 1; stroke-width: 0px; fill: rgb(119, 119, 119); fill-opacity: 1;"/><path class="point" transform="translate(331.66,26)" d="M4,0A4,4 0 1,1 0,-4A4,4 0 0,1 4,0Z" style="opacity: 1; stroke-width: 0px; fill: rgb(119, 119, 119); fill-opacity: 1;"/></g><g class="text"/></g><g class="trace scatter trace58b4be" style="stroke-miterlimit: 2; opacity: 1;"><g class="fills"/><g class="errorbars"><g class="errorbar"><path class="yerror" d="M19.72,286.37h6m-3,0V299.81m-3,0h6" style="vector-effect: none; stroke-width: 1.2px; stroke: rgb(106, 142, 58); stroke-opacity: 1;"/></g><g class="errorbar"><path class="yerror" d="M126,324.68h6m-3,0V328.86m-3,0h6" style="vector-effect: none; stroke-width: 1.2px; stroke: rgb(106, 142, 58); stroke-opacity: 1;"/></g><g class="errorbar"><path class="yerror" d="M222.38,82.51h6m-3,0V135.45m-3,0h6" style="vector-effect: none; stroke-width: 1.2px; stroke: rgb(106, 142, 58); stroke-opacity: 1;"/></g><g class="errorbar"><path class="yerror" d="M328.66,101.56h6m-3,0V106.45m-3,0h6" style="vector-effect: none; stroke-width: 1.2px; stroke: rgb(106, 142, 58); stroke-opacity: 1;"/></g></g><g class="lines"><path class="js-line" d="M22.72,286.37L129,324.68L225.38,82.51L331.66,101.56" style="vector-effect: none; fill: none; stroke: rgb(106, 142, 58); stroke-opacity: 1; stroke-width: 2.5px; opacity: 1;"/></g><g class="points"><path class="point" transform="translate(22.72,286.37)" d="M4,0A4,4 0 1,1 0,-4A4,4 0 0,1 4,0Z" style="opacity: 1; stroke-width: 0px; fill: rgb(106, 142, 58); fill-opacity: 1;"/><path class="point" transform="translate(129,324.68)" d="M4,0A4,4 0 1,1 0,-4A4,4 0 0,1 4,0Z" style="opacity: 1; stroke-width: 0px; fill: rgb(106, 142, 58); fill-opacity: 1;"/><path class="point" transform="translate(225.38,82.51)" d="M4,0A4,4 0 1,1 0,-4A4,4 0 0,1 4,0Z" style="opacity: 1; stroke-width: 0px; fill: rgb(106, 142, 58); fill-opacity: 1;"/><path class="point" transform="translate(331.66,101.56)" d="M4,0A4,4 0 1,1 0,-4A4,4 0 0,1 4,0Z" style="opacity: 1; stroke-width: 0px; fill: rgb(106, 142, 58); fill-opacity: 1;"/></g><g class="text"/></g><g class="trace scatter trace93a54b" style="stroke-miterlimit: 2; opacity: 1;"><g class="fills"/><g class="errorbars"><g class="errorbar"><path class="yerror" d="M19.72,294.98h6m-3,0V315.21m-3,0h6" style="vector-effect: none; stroke-width: 1.2px; stroke: rgb(20, 107, 140); stroke-opacity: 1;"/></g><g class="errorbar"><path class="yerror" d="M126,201.95h6m-3,0V282.22m-3,0h6" style="vector-effect: none; stroke-width: 1.2px; stroke: rgb(20, 107, 140); stroke-opacity: 1;"/></g><g class="errorbar"><path class="yerror" d="M222.38,64.46h6m-3,0V164.18m-3,0h6" style="vector-effect: none; stroke-width: 1.2px; stroke: rgb(20, 107, 140); stroke-opacity: 1;"/></g><g class="errorbar"><path class="yerror" d="M328.66,84.41h6m-3,0V98.13m-3,0h6" style="vector-effect: none; stroke-width: 1.2px; stroke: rgb(20, 107, 140); stroke-opacity: 1;"/></g></g><g class="lines"><path class="js-line" d="M22.72,294.98L129,201.95L225.38,64.46L331.66,84.41" style="vector-effect: none; fill: none; stroke: rgb(20, 107, 140); stroke-opacity: 1; stroke-width: 2.5px; opacity: 1;"/></g><g class="points"><path class="point" transform="translate(22.72,294.98)" d="M4,0A4,4 0 1,1 0,-4A4,4 0 0,1 4,0Z" style="opacity: 1; stroke-width: 0px; fill: rgb(20, 107, 140); fill-opacity: 1;"/><path class="point" transform="translate(129,201.95)" d="M4,0A4,4 0 1,1 0,-4A4,4 0 0,1 4,0Z" style="opacity: 1; stroke-width: 0px; fill: rgb(20, 107, 140); fill-opacity: 1;"/><path class="point" transform="translate(225.38,64.46)" d="M4,0A4,4 0 1,1 0,-4A4,4 0 0,1 4,0Z" style="opacity: 1; stroke-width: 0px; fill: rgb(20, 107, 140); fill-opacity: 1;"/><path class="point" transform="translate(331.66,84.41)" d="M4,0A4,4 0 1,1 0,-4A4,4 0 0,1 4,0Z" style="opacity: 1; stroke-width: 0px; fill: rgb(20, 107, 140); fill-opacity: 1;"/></g><g class="text"/></g><g class="trace scatter trace7bf89c" style="stroke-miterlimit: 2; opacity: 1;"><g class="fills"/><g class="errorbars"><g class="errorbar"><path class="yerror" d="M19.72,390.1h6m-3,0V396.44m-3,0h6" style="vector-effect: none; stroke-width: 1.2px; stroke: rgb(166, 58, 58); stroke-opacity: 1;"/></g><g class="errorbar"><path class="yerror" d="M126,390.1h6m-3,0V394.64m-3,0h6" style="vector-effect: none; stroke-width: 1.2px; stroke: rgb(166, 58, 58); stroke-opacity: 1;"/></g><g class="errorbar"><path class="yerror" d="M222.38,390.1h6m-3,0V399m-3,0h6" style="vector-effect: none; stroke-width: 1.2px; stroke: rgb(166, 58, 58); stroke-opacity: 1;"/></g><g class="errorbar"><path class="yerror" d="M328.66,390.1h6m-3,0V398.52m-3,0h6" style="vector-effect: none; stroke-width: 1.2px; stroke: rgb(166, 58, 58); stroke-opacity: 1;"/></g></g><g class="lines"><path class="js-line" d="M22.72,390.1L331.66,390.1" style="vector-effect: none; fill: none; stroke: rgb(166, 58, 58); stroke-opacity: 1; stroke-width: 2.5px; opacity: 1;"/></g><g class="points"><path class="point" transform="translate(22.72,390.1)" d="M4,0A4,4 0 1,1 0,-4A4,4 0 0,1 4,0Z" style="opacity: 1; stroke-width: 0px; fill: rgb(166, 58, 58); fill-opacity: 1;"/><path class="point" transform="translate(129,390.1)" d="M4,0A4,4 0 1,1 0,-4A4,4 0 0,1 4,0Z" style="opacity: 1; stroke-width: 0px; fill: rgb(166, 58, 58); fill-opacity: 1;"/><path class="point" transform="translate(225.38,390.1)" d="M4,0A4,4 0 1,1 0,-4A4,4 0 0,1 4,0Z" style="opacity: 1; stroke-width: 0px; fill: rgb(166, 58, 58); fill-opacity: 1;"/><path class="point" transform="translate(331.66,390.1)" d="M4,0A4,4 0 1,1 0,-4A4,4 0 0,1 4,0Z" style="opacity: 1; stroke-width: 0px; fill: rgb(166, 58, 58); fill-opacity: 1;"/></g><g class="text"/></g></g></g></g><g class="zerolinelayer-above"/><path class="xlines-above crisp" d="M0,0" style="fill: none;"/><path class="ylines-above crisp" d="M0,0" style="fill: none;"/><g class="overlines-above"/><g class="xaxislayer-above"><g class="x2tick"><text text-anchor="middle" x="0" y="509" transform="translate(497.34000000000003,0)" style="font-family: Arial, sans-serif; font-size: 13px; fill: rgb(34, 34, 34); fill-opacity: 1; white-space: pre;">8</text></g><g class="x2tick"><text text-anchor="middle" x="0" y="509" style="font-family: Arial, sans-serif; font-size: 13px; fill: rgb(34, 34, 34); fill-opacity: 1; white-space: pre;" transform="translate(603.62,0)">16</text></g><g class="x2tick"><text text-anchor="middle" x="0" y="509" style="font-family: Arial, sans-serif; font-size: 13px; fill: rgb(34, 34, 34); fill-opacity: 1; white-space: pre;" transform="translate(700,0)">30</text></g><g class="x2tick"><text text-anchor="middle" x="0" y="509" style="font-family: Arial, sans-serif; font-size: 13px; fill: rgb(34, 34, 34); fill-opacity: 1; white-space: pre;" transform="translate(806.28,0)">60</text></g></g><g class="yaxislayer-above"/><g class="overaxes-above"/></g></g><g class="polarlayer"/><g class="smithlayer"/><g class="ternarylayer"/><g class="geolayer"/><g class="funnelarealayer"/><g class="pielayer"/><g class="iciclelayer"/><g class="treemaplayer"/><g class="sunburstlayer"/><g class="glimages"/><defs id="topdefs-8cbaf1"><g class="clips"/><clipPath id="legend8cbaf1"><rect width="410" height="30" x="0" y="0"/></clipPath></defs><g class="layer-above"><g class="imagelayer"/><g class="shapelayer"><g class="shape-group" data-index="0" clip-path="url(#clip8cbaf1y)"><path data-index="0" fill-rule="evenodd" d="M75,465.1L429.38,465.1" style="opacity: 1; stroke: rgb(51, 51, 51); stroke-opacity: 1; fill: rgb(0, 0, 0); fill-opacity: 0; stroke-width: 1px;"/></g><g class="shape-group" data-index="1" clip-path="url(#clip8cbaf1y2)"><path data-index="1" fill-rule="evenodd" d="M474.62,465.1L829,465.1" style="opacity: 1; stroke: rgb(51, 51, 51); stroke-opacity: 1; fill: rgb(0, 0, 0); fill-opacity: 0; stroke-width: 1px;"/></g></g></g><g class="infolayer"><g class="legend" pointer-events="all" transform="translate(75,40.8)"><rect class="bg" shape-rendering="crispEdges" style="stroke: rgb(68, 68, 68); stroke-opacity: 1; fill: rgb(255, 255, 255); fill-opacity: 1; stroke-width: 0px;" width="410" height="30" x="0" y="0"/><g class="scrollbox" transform="" clip-path="url(#legend8cbaf1)"><g class="groups"><g class="traces" transform="translate(0,14.950000000000001)" style="opacity: 1;"><text class="legendtext" text-anchor="start" x="40" y="5.07" style="font-family: Arial, sans-serif; font-size: 13px; fill: rgb(34, 34, 34); fill-opacity: 1; white-space: pre;">Naive</text><g class="layers" style="opacity: 1;"><g class="legendfill"/><g class="legendlines"><path class="js-line" d="M5,0h30" style="fill: none; stroke: rgb(119, 119, 119); stroke-opacity: 1; stroke-width: 2.5px;"/></g><g class="legendsymbols"><g class="legendpoints"><path class="scatterpts" transform="translate(20,0)" d="M4,0A4,4 0 1,1 0,-4A4,4 0 0,1 4,0Z" style="opacity: 1; stroke-width: 0px; fill: rgb(119, 119, 119); fill-opacity: 1;"/></g></g></g><rect class="legendtoggle" x="0" y="-9.950000000000001" width="75.75" height="19.900000000000002" style="fill: rgb(0, 0, 0); fill-opacity: 0;"/></g><g class="traces" transform="translate(78.25,14.950000000000001)" style="opacity: 1;"><text class="legendtext" text-anchor="start" x="40" y="5.07" style="font-family: Arial, sans-serif; font-size: 13px; fill: rgb(34, 34, 34); fill-opacity: 1; white-space: pre;">Bucketed</text><g class="layers" style="opacity: 1;"><g class="legendfill"/><g class="legendlines"><path class="js-line" d="M5,0h30" style="fill: none; stroke: rgb(106, 142, 58); stroke-opacity: 1; stroke-width: 2.5px;"/></g><g class="legendsymbols"><g class="legendpoints"><path class="scatterpts" transform="translate(20,0)" d="M4,0A4,4 0 1,1 0,-4A4,4 0 0,1 4,0Z" style="opacity: 1; stroke-width: 0px; fill: rgb(106, 142, 58); fill-opacity: 1;"/></g></g></g><rect class="legendtoggle" x="0" y="-9.950000000000001" width="96.703125" height="19.900000000000002" style="fill: rgb(0, 0, 0); fill-opacity: 0;"/></g><g class="traces" transform="translate(177.453125,14.950000000000001)" style="opacity: 1;"><text class="legendtext" text-anchor="start" x="40" y="5.07" style="font-family: Arial, sans-serif; font-size: 13px; fill: rgb(34, 34, 34); fill-opacity: 1; white-space: pre;">Interleaved</text><g class="layers" style="opacity: 1;"><g class="legendfill"/><g class="legendlines"><path class="js-line" d="M5,0h30" style="fill: none; stroke: rgb(20, 107, 140); stroke-opacity: 1; stroke-width: 2.5px;"/></g><g class="legendsymbols"><g class="legendpoints"><path class="scatterpts" transform="translate(20,0)" d="M4,0A4,4 0 1,1 0,-4A4,4 0 0,1 4,0Z" style="opacity: 1; stroke-width: 0px; fill: rgb(20, 107, 140); fill-opacity: 1;"/></g></g></g><rect class="legendtoggle" x="0" y="-9.950000000000001" width="106.828125" height="19.900000000000002" style="fill: rgb(0, 0, 0); fill-opacity: 0;"/></g><g class="traces" transform="translate(286.78125,14.950000000000001)" style="opacity: 1;"><text class="legendtext" text-anchor="start" x="40" y="5.07" style="font-family: Arial, sans-serif; font-size: 13px; fill: rgb(34, 34, 34); fill-opacity: 1; white-space: pre;">PyTorch DDP</text><g class="layers" style="opacity: 1;"><g class="legendfill"/><g class="legendlines"><path class="js-line" d="M5,0h30" style="fill: none; stroke: rgb(166, 58, 58); stroke-opacity: 1; stroke-width: 2.5px;"/></g><g class="legendsymbols"><g class="legendpoints"><path class="scatterpts" transform="translate(20,0)" d="M4,0A4,4 0 1,1 0,-4A4,4 0 0,1 4,0Z" style="opacity: 1; stroke-width: 0px; fill: rgb(166, 58, 58); fill-opacity: 1;"/></g></g></g><rect class="legendtoggle" x="0" y="-9.950000000000001" width="120.53125" height="19.900000000000002" style="fill: rgb(0, 0, 0); fill-opacity: 0;"/></g></g></g><rect class="scrollbar" rx="20" ry="3" width="0" height="0" style="fill: rgb(128, 139, 164); fill-opacity: 1;" x="0" y="0"/></g><g class="g-gtitle"><text class="gtitle" x="432" y="37.5" text-anchor="middle" dy="0em" style="opacity: 1; font-family: Arial, sans-serif; font-size: 18px; fill: rgb(34, 34, 34); fill-opacity: 1; white-space: pre;">What the implementation is worth, against compute per collective</text></g><g class="g-xtitle"><text class="xtitle" x="252.19" y="537.7" text-anchor="middle" style="opacity: 1; font-family: Arial, sans-serif; font-size: 16px; fill: rgb(34, 34, 34); fill-opacity: 1; white-space: pre;">Sequences per rank per backward</text></g><g class="g-x2title"><text class="x2title" x="651.81" y="537.7" text-anchor="middle" style="opacity: 1; font-family: Arial, sans-serif; font-size: 16px; fill: rgb(34, 34, 34); fill-opacity: 1; white-space: pre;">Sequences per rank per backward</text></g><g class="g-ytitle"><text class="ytitle" transform="rotate(-90,39.43125,285)" x="39.43125" y="285" text-anchor="middle" style="opacity: 1; font-family: Arial, sans-serif; font-size: 16px; fill: rgb(34, 34, 34); fill-opacity: 1; white-space: pre;">Step time above the best mode (%)</text></g><g class="g-y2title"/><g class="annotation" data-index="0" style="opacity: 1;"><g class="annotation-text-g" transform="rotate(0,123.0876,88.7)"><g class="cursor-pointer" transform="translate(82,79)"><rect class="bg" x="0.5" y="0.5" width="81" height="18" style="stroke-width: 1px; stroke: rgb(0, 0, 0); stroke-opacity: 0; fill: rgb(0, 0, 0); fill-opacity: 0;"/><text class="annotation-text" text-anchor="middle" x="41.0234375" y="14" style="font-family: Arial, sans-serif; font-size: 13px; fill: rgb(34, 34, 34); fill-opacity: 1; white-space: pre;"><tspan style="font-weight:bold">Native fabric</tspan></text></g></g></g><g class="annotation" data-index="1" style="opacity: 1;"><g class="annotation-text-g" transform="rotate(0,550.7076,88.7)"><g class="cursor-pointer" transform="translate(482,79)"><rect class="bg" x="0.5" y="0.5" width="137" height="18" style="stroke-width: 1px; stroke: rgb(0, 0, 0); stroke-opacity: 0; fill: rgb(0, 0, 0); fill-opacity: 0;"/><text class="annotation-text" text-anchor="middle" x="68.8203125" y="14" style="font-family: Arial, sans-serif; font-size: 13px; fill: rgb(34, 34, 34); fill-opacity: 1; white-space: pre;"><tspan style="font-weight:bold">Forced TCP/loopback</tspan></text></g></g></g></g></svg>